<svg width="490" height="443" viewBox="0 0 490 443" fill="none" xmlns="http://www.w3.org/2000/svg">
<path d="M128.1 263.682L127.616 262.733C122.589 252.607 119.56 244.053 118.528 237.073C117.495 230.093 117.884 223.817 119.695 218.245C121.505 212.672 124.202 207.014 127.785 201.269C129.929 197.786 131.582 194.12 132.744 190.273C133.879 186.374 134.285 182.347 133.962 178.194C133.692 174.014 132.496 169.841 130.373 165.675C127.74 160.507 124.243 156.643 119.883 154.082C115.522 151.521 110.788 150.246 105.679 150.259C100.571 150.271 95.5382 151.54 90.5811 154.066C86.2569 156.269 82.5476 159.288 79.4533 163.123C76.359 166.959 74.4479 171.486 73.7199 176.706C72.992 181.926 74.0023 187.755 76.7511 194.193L56.8173 204.349C52.6714 195.169 51.0822 186.314 52.0497 177.784C53.07 169.226 56.2008 161.487 61.4421 154.565C66.7362 147.616 73.6547 141.965 82.1978 137.613C91.4791 132.884 100.488 130.618 109.224 130.817C118.013 130.988 125.919 133.337 132.941 137.863C140.016 142.362 145.65 148.724 149.841 156.951C152.797 162.752 154.574 168.456 155.173 174.063C155.824 179.643 155.429 185.125 153.987 190.509C152.599 195.867 150.309 201.151 147.12 206.364C143.957 211.629 141.797 216.581 140.642 221.222C139.459 225.811 139.35 230.616 140.314 235.637C141.279 240.659 143.374 246.467 146.601 253.06L147.084 254.009L128.1 263.682ZM162.085 305.351C158.183 307.34 154.122 307.648 149.903 306.278C145.684 304.907 142.58 302.27 140.592 298.368C138.604 294.465 138.295 290.405 139.666 286.186C141.037 281.967 143.673 278.863 147.576 276.875C151.478 274.886 155.539 274.577 159.758 275.948C163.977 277.319 167.08 279.956 169.069 283.858C170.385 286.442 170.935 289.151 170.719 291.985C170.555 294.792 169.727 297.405 168.237 299.825C166.773 302.166 164.722 304.008 162.085 305.351Z" fill="white"/>
<path d="M221.52 190.864V189.798C221.638 178.494 222.822 169.498 225.071 162.81C227.32 156.122 230.516 150.706 234.659 146.563C238.802 142.42 243.774 138.603 249.574 135.111C253.066 132.98 256.203 130.465 258.984 127.565C261.766 124.605 263.956 121.202 265.554 117.355C267.211 113.508 268.04 109.247 268.04 104.571C268.04 98.7708 266.679 93.7401 263.956 89.4787C261.233 85.2173 257.594 81.9325 253.036 79.6243C248.479 77.316 243.419 76.1619 237.855 76.1619C233.002 76.1619 228.326 77.1681 223.828 79.1804C219.33 81.1927 215.572 84.3591 212.553 88.6797C209.535 93.0002 207.789 98.6525 207.315 105.636H184.943C185.417 95.5748 188.021 86.9633 192.756 79.8018C197.55 72.6404 203.853 67.1657 211.665 63.3778C219.537 59.59 228.267 57.696 237.855 57.696C248.272 57.696 257.327 59.7675 265.021 63.9105C272.775 68.0535 278.752 73.7353 282.955 80.956C287.216 88.1766 289.347 96.4034 289.347 105.636C289.347 112.147 288.34 118.036 286.328 123.303C284.375 128.571 281.534 133.276 277.805 137.419C274.136 141.562 269.697 145.232 264.489 148.428C259.28 151.683 255.108 155.116 251.971 158.726C248.834 162.277 246.555 166.509 245.135 171.421C243.714 176.334 242.945 182.459 242.827 189.798V190.864H221.52ZM232.884 243.42C228.504 243.42 224.746 241.852 221.609 238.715C218.472 235.578 216.903 231.82 216.903 227.44C216.903 223.061 218.472 219.302 221.609 216.165C224.746 213.029 228.504 211.46 232.884 211.46C237.263 211.46 241.022 213.029 244.158 216.165C247.295 219.302 248.864 223.061 248.864 227.44C248.864 230.34 248.124 233.004 246.644 235.43C245.224 237.857 243.3 239.81 240.874 241.29C238.506 242.71 235.843 243.42 232.884 243.42Z" fill="white"/>
<path d="M328.888 243.898L329.218 242.884C332.823 232.17 336.729 223.98 340.935 218.314C345.141 212.648 349.854 208.486 355.074 205.826C360.295 203.166 366.203 201.071 372.798 199.543C376.777 198.595 380.538 197.172 384.08 195.274C387.64 193.319 390.774 190.759 393.483 187.594C396.248 184.447 398.352 180.651 399.797 176.204C401.59 170.688 401.85 165.482 400.577 160.588C399.305 155.694 396.858 151.445 393.237 147.842C389.616 144.238 385.16 141.577 379.869 139.858C375.253 138.358 370.496 137.87 365.596 138.394C360.696 138.918 356.143 140.768 351.937 143.944C347.731 147.12 344.324 151.956 341.716 158.452L320.439 151.539C323.998 142.116 329.136 134.731 335.852 129.383C342.624 124.053 350.311 120.794 358.912 119.606C367.569 118.436 376.456 119.333 385.575 122.295C395.482 125.514 403.454 130.283 409.491 136.601C415.585 142.937 419.514 150.188 421.28 158.353C423.101 166.538 422.585 175.02 419.732 183.801C417.72 189.993 414.944 195.283 411.402 199.671C407.917 204.077 403.761 207.674 398.934 210.462C394.164 213.268 388.809 215.386 382.868 216.817C376.908 218.303 371.879 220.278 367.78 222.743C363.699 225.151 360.225 228.471 357.356 232.704C354.487 236.937 351.862 242.525 349.482 249.469L349.152 250.482L328.888 243.898ZM323.455 297.394C319.29 296.04 316.2 293.387 314.186 289.435C312.172 285.482 311.842 281.423 313.195 277.258C314.548 273.092 317.202 270.002 321.154 267.988C325.107 265.975 329.166 265.644 333.331 266.998C337.497 268.351 340.586 271.004 342.6 274.957C344.614 278.909 344.944 282.968 343.591 287.134C342.695 289.892 341.168 292.196 339.011 294.047C336.91 295.916 334.477 297.179 331.712 297.836C329.022 298.456 326.269 298.308 323.455 297.394Z" fill="white"/>
</svg>
